<mxfile host="app.diagrams.net" agent="Mozilla/5.0 (Windows NT 10.0; Win64; x64) AppleWebKit/537.36 (KHTML, like Gecko) Chrome/133.0.0.0 Safari/537.36" version="26.0.12">
  <diagram name="Página-1" id="8D-3gIo9iSxEuLz8DAEU">
    <mxGraphModel dx="1009" dy="563" grid="1" gridSize="10" guides="1" tooltips="1" connect="1" arrows="1" fold="1" page="1" pageScale="1" pageWidth="827" pageHeight="1169" math="0" shadow="0">
      <root>
        <mxCell id="0" />
        <mxCell id="1" parent="0" />
        <mxCell id="Cb8Zpmx-AjWoCuc97hhI-1" value="Usuario" style="rounded=0;whiteSpace=wrap;html=1;" vertex="1" parent="1">
          <mxGeometry x="80" y="40" width="120" height="40" as="geometry" />
        </mxCell>
        <mxCell id="Cb8Zpmx-AjWoCuc97hhI-2" value="App" style="rounded=0;whiteSpace=wrap;html=1;" vertex="1" parent="1">
          <mxGeometry x="280" y="40" width="120" height="40" as="geometry" />
        </mxCell>
        <mxCell id="Cb8Zpmx-AjWoCuc97hhI-3" value="Api" style="rounded=0;whiteSpace=wrap;html=1;" vertex="1" parent="1">
          <mxGeometry x="480" y="40" width="120" height="40" as="geometry" />
        </mxCell>
        <mxCell id="Cb8Zpmx-AjWoCuc97hhI-4" value="Base de datos" style="rounded=0;whiteSpace=wrap;html=1;" vertex="1" parent="1">
          <mxGeometry x="680" y="40" width="120" height="40" as="geometry" />
        </mxCell>
        <mxCell id="Cb8Zpmx-AjWoCuc97hhI-5" value="" style="endArrow=none;html=1;rounded=0;entryX=0.5;entryY=1;entryDx=0;entryDy=0;" edge="1" parent="1" target="Cb8Zpmx-AjWoCuc97hhI-1">
          <mxGeometry width="50" height="50" relative="1" as="geometry">
            <mxPoint x="130" y="2320" as="sourcePoint" />
            <mxPoint x="210" y="270" as="targetPoint" />
          </mxGeometry>
        </mxCell>
        <mxCell id="Cb8Zpmx-AjWoCuc97hhI-6" value="" style="endArrow=none;html=1;rounded=0;entryX=0.5;entryY=1;entryDx=0;entryDy=0;" edge="1" parent="1">
          <mxGeometry width="50" height="50" relative="1" as="geometry">
            <mxPoint x="339" y="2320" as="sourcePoint" />
            <mxPoint x="339.33000000000004" y="80" as="targetPoint" />
          </mxGeometry>
        </mxCell>
        <mxCell id="Cb8Zpmx-AjWoCuc97hhI-7" value="" style="endArrow=none;html=1;rounded=0;entryX=0.5;entryY=1;entryDx=0;entryDy=0;" edge="1" parent="1">
          <mxGeometry width="50" height="50" relative="1" as="geometry">
            <mxPoint x="539" y="2310" as="sourcePoint" />
            <mxPoint x="539.33" y="80" as="targetPoint" />
          </mxGeometry>
        </mxCell>
        <mxCell id="Cb8Zpmx-AjWoCuc97hhI-8" value="" style="endArrow=none;html=1;rounded=0;entryX=0.5;entryY=1;entryDx=0;entryDy=0;" edge="1" parent="1">
          <mxGeometry width="50" height="50" relative="1" as="geometry">
            <mxPoint x="739" y="2300" as="sourcePoint" />
            <mxPoint x="739.33" y="80" as="targetPoint" />
          </mxGeometry>
        </mxCell>
        <mxCell id="Cb8Zpmx-AjWoCuc97hhI-9" value="" style="endArrow=classic;html=1;rounded=0;" edge="1" parent="1">
          <mxGeometry width="50" height="50" relative="1" as="geometry">
            <mxPoint x="140" y="160" as="sourcePoint" />
            <mxPoint x="340" y="160" as="targetPoint" />
          </mxGeometry>
        </mxCell>
        <mxCell id="Cb8Zpmx-AjWoCuc97hhI-10" value="Navega por la aplicación&amp;nbsp;" style="text;html=1;align=center;verticalAlign=middle;resizable=0;points=[];autosize=1;strokeColor=none;fillColor=none;" vertex="1" parent="1">
          <mxGeometry x="150" y="128" width="160" height="30" as="geometry" />
        </mxCell>
        <mxCell id="Cb8Zpmx-AjWoCuc97hhI-11" value="" style="endArrow=classic;html=1;rounded=0;" edge="1" parent="1">
          <mxGeometry width="50" height="50" relative="1" as="geometry">
            <mxPoint x="140" y="210" as="sourcePoint" />
            <mxPoint x="340" y="210" as="targetPoint" />
          </mxGeometry>
        </mxCell>
        <mxCell id="Cb8Zpmx-AjWoCuc97hhI-12" value="Ve vestidos" style="text;html=1;align=center;verticalAlign=middle;resizable=0;points=[];autosize=1;strokeColor=none;fillColor=none;" vertex="1" parent="1">
          <mxGeometry x="190" y="178" width="80" height="30" as="geometry" />
        </mxCell>
        <mxCell id="Cb8Zpmx-AjWoCuc97hhI-13" value="" style="endArrow=classic;html=1;rounded=0;" edge="1" parent="1">
          <mxGeometry width="50" height="50" relative="1" as="geometry">
            <mxPoint x="140" y="260" as="sourcePoint" />
            <mxPoint x="340" y="260" as="targetPoint" />
          </mxGeometry>
        </mxCell>
        <mxCell id="Cb8Zpmx-AjWoCuc97hhI-14" value="Selecciona vestido&amp;nbsp;" style="text;html=1;align=center;verticalAlign=middle;resizable=0;points=[];autosize=1;strokeColor=none;fillColor=none;" vertex="1" parent="1">
          <mxGeometry x="165" y="228" width="130" height="30" as="geometry" />
        </mxCell>
        <mxCell id="Cb8Zpmx-AjWoCuc97hhI-15" value="" style="endArrow=classic;html=1;rounded=0;" edge="1" parent="1">
          <mxGeometry width="50" height="50" relative="1" as="geometry">
            <mxPoint x="340" y="290" as="sourcePoint" />
            <mxPoint x="540" y="290" as="targetPoint" />
          </mxGeometry>
        </mxCell>
        <mxCell id="Cb8Zpmx-AjWoCuc97hhI-16" value="Solicita post del vestido" style="text;html=1;align=center;verticalAlign=middle;resizable=0;points=[];autosize=1;strokeColor=none;fillColor=none;" vertex="1" parent="1">
          <mxGeometry x="365" y="255" width="150" height="30" as="geometry" />
        </mxCell>
        <mxCell id="Cb8Zpmx-AjWoCuc97hhI-17" value="" style="endArrow=classic;html=1;rounded=0;" edge="1" parent="1">
          <mxGeometry width="50" height="50" relative="1" as="geometry">
            <mxPoint x="540" y="310" as="sourcePoint" />
            <mxPoint x="740" y="310" as="targetPoint" />
          </mxGeometry>
        </mxCell>
        <mxCell id="Cb8Zpmx-AjWoCuc97hhI-18" value="Solicita post del vestido" style="text;html=1;align=center;verticalAlign=middle;resizable=0;points=[];autosize=1;strokeColor=none;fillColor=none;" vertex="1" parent="1">
          <mxGeometry x="560" y="280" width="150" height="30" as="geometry" />
        </mxCell>
        <mxCell id="Cb8Zpmx-AjWoCuc97hhI-19" value="" style="endArrow=none;html=1;rounded=0;startFill=1;startArrow=classic;" edge="1" parent="1">
          <mxGeometry width="50" height="50" relative="1" as="geometry">
            <mxPoint x="540" y="370" as="sourcePoint" />
            <mxPoint x="740" y="370" as="targetPoint" />
          </mxGeometry>
        </mxCell>
        <mxCell id="Cb8Zpmx-AjWoCuc97hhI-20" value="Devuelve credenciales&amp;nbsp;" style="text;html=1;align=center;verticalAlign=middle;resizable=0;points=[];autosize=1;strokeColor=none;fillColor=none;" vertex="1" parent="1">
          <mxGeometry x="565" y="338" width="150" height="30" as="geometry" />
        </mxCell>
        <mxCell id="Cb8Zpmx-AjWoCuc97hhI-21" value="" style="endArrow=none;html=1;rounded=0;startFill=1;startArrow=classic;" edge="1" parent="1">
          <mxGeometry width="50" height="50" relative="1" as="geometry">
            <mxPoint x="340" y="390" as="sourcePoint" />
            <mxPoint x="540" y="390" as="targetPoint" />
          </mxGeometry>
        </mxCell>
        <mxCell id="Cb8Zpmx-AjWoCuc97hhI-22" value="Devuelve credenciales&amp;nbsp;" style="text;html=1;align=center;verticalAlign=middle;resizable=0;points=[];autosize=1;strokeColor=none;fillColor=none;" vertex="1" parent="1">
          <mxGeometry x="365" y="360" width="150" height="30" as="geometry" />
        </mxCell>
        <mxCell id="Cb8Zpmx-AjWoCuc97hhI-23" value="" style="endArrow=none;html=1;rounded=0;startFill=1;startArrow=classic;" edge="1" parent="1">
          <mxGeometry width="50" height="50" relative="1" as="geometry">
            <mxPoint x="140" y="410" as="sourcePoint" />
            <mxPoint x="340" y="410" as="targetPoint" />
          </mxGeometry>
        </mxCell>
        <mxCell id="Cb8Zpmx-AjWoCuc97hhI-24" value="Ve datos del vestido" style="text;html=1;align=center;verticalAlign=middle;resizable=0;points=[];autosize=1;strokeColor=none;fillColor=none;" vertex="1" parent="1">
          <mxGeometry x="155" y="378" width="130" height="30" as="geometry" />
        </mxCell>
        <mxCell id="Cb8Zpmx-AjWoCuc97hhI-26" value="" style="endArrow=classic;html=1;rounded=0;" edge="1" parent="1">
          <mxGeometry width="50" height="50" relative="1" as="geometry">
            <mxPoint x="140" y="460" as="sourcePoint" />
            <mxPoint x="340" y="460" as="targetPoint" />
          </mxGeometry>
        </mxCell>
        <mxCell id="Cb8Zpmx-AjWoCuc97hhI-27" value="Agranda la imagen" style="text;html=1;align=center;verticalAlign=middle;resizable=0;points=[];autosize=1;strokeColor=none;fillColor=none;" vertex="1" parent="1">
          <mxGeometry x="170" y="430" width="120" height="30" as="geometry" />
        </mxCell>
        <mxCell id="Cb8Zpmx-AjWoCuc97hhI-28" value="" style="endArrow=classic;html=1;rounded=0;edgeStyle=orthogonalEdgeStyle;curved=1;" edge="1" parent="1">
          <mxGeometry width="50" height="50" relative="1" as="geometry">
            <mxPoint x="340" y="480" as="sourcePoint" />
            <mxPoint x="340" y="500" as="targetPoint" />
            <Array as="points">
              <mxPoint x="370" y="480" />
              <mxPoint x="370" y="500" />
            </Array>
          </mxGeometry>
        </mxCell>
        <mxCell id="Cb8Zpmx-AjWoCuc97hhI-29" value="" style="endArrow=none;html=1;rounded=0;startFill=1;startArrow=classic;" edge="1" parent="1">
          <mxGeometry width="50" height="50" relative="1" as="geometry">
            <mxPoint x="140" y="510" as="sourcePoint" />
            <mxPoint x="340" y="510" as="targetPoint" />
          </mxGeometry>
        </mxCell>
        <mxCell id="Cb8Zpmx-AjWoCuc97hhI-30" value="Ve imagen mas grande&amp;nbsp;" style="text;html=1;align=center;verticalAlign=middle;resizable=0;points=[];autosize=1;strokeColor=none;fillColor=none;" vertex="1" parent="1">
          <mxGeometry x="170" y="478" width="150" height="30" as="geometry" />
        </mxCell>
        <mxCell id="Cb8Zpmx-AjWoCuc97hhI-31" value="" style="endArrow=classic;html=1;rounded=0;" edge="1" parent="1">
          <mxGeometry width="50" height="50" relative="1" as="geometry">
            <mxPoint x="140" y="560" as="sourcePoint" />
            <mxPoint x="340" y="560" as="targetPoint" />
          </mxGeometry>
        </mxCell>
        <mxCell id="Cb8Zpmx-AjWoCuc97hhI-32" value="Agrega a favoritos&amp;nbsp;" style="text;html=1;align=center;verticalAlign=middle;resizable=0;points=[];autosize=1;strokeColor=none;fillColor=none;" vertex="1" parent="1">
          <mxGeometry x="170" y="528" width="120" height="30" as="geometry" />
        </mxCell>
        <mxCell id="Cb8Zpmx-AjWoCuc97hhI-33" value="" style="endArrow=classic;html=1;rounded=0;" edge="1" parent="1">
          <mxGeometry width="50" height="50" relative="1" as="geometry">
            <mxPoint x="340" y="584" as="sourcePoint" />
            <mxPoint x="540" y="584" as="targetPoint" />
          </mxGeometry>
        </mxCell>
        <mxCell id="Cb8Zpmx-AjWoCuc97hhI-34" value="Manda post del vestido" style="text;html=1;align=center;verticalAlign=middle;resizable=0;points=[];autosize=1;strokeColor=none;fillColor=none;" vertex="1" parent="1">
          <mxGeometry x="365" y="555" width="150" height="30" as="geometry" />
        </mxCell>
        <mxCell id="Cb8Zpmx-AjWoCuc97hhI-35" value="" style="endArrow=classic;html=1;rounded=0;" edge="1" parent="1">
          <mxGeometry width="50" height="50" relative="1" as="geometry">
            <mxPoint x="540" y="610" as="sourcePoint" />
            <mxPoint x="740" y="610" as="targetPoint" />
          </mxGeometry>
        </mxCell>
        <mxCell id="Cb8Zpmx-AjWoCuc97hhI-36" value="Guarda los datos en la cuenta&lt;div&gt;&amp;nbsp;del usuario&amp;nbsp;&lt;/div&gt;" style="text;html=1;align=center;verticalAlign=middle;resizable=0;points=[];autosize=1;strokeColor=none;fillColor=none;" vertex="1" parent="1">
          <mxGeometry x="550" y="570" width="180" height="40" as="geometry" />
        </mxCell>
        <mxCell id="Cb8Zpmx-AjWoCuc97hhI-37" value="" style="endArrow=none;html=1;rounded=0;startFill=1;startArrow=classic;" edge="1" parent="1">
          <mxGeometry width="50" height="50" relative="1" as="geometry">
            <mxPoint x="540" y="650" as="sourcePoint" />
            <mxPoint x="740" y="650" as="targetPoint" />
          </mxGeometry>
        </mxCell>
        <mxCell id="Cb8Zpmx-AjWoCuc97hhI-38" value="Credencial de actualizado&amp;nbsp;" style="text;html=1;align=center;verticalAlign=middle;resizable=0;points=[];autosize=1;strokeColor=none;fillColor=none;" vertex="1" parent="1">
          <mxGeometry x="560" y="620" width="160" height="30" as="geometry" />
        </mxCell>
        <mxCell id="Cb8Zpmx-AjWoCuc97hhI-39" value="" style="endArrow=none;html=1;rounded=0;startFill=1;startArrow=classic;" edge="1" parent="1">
          <mxGeometry width="50" height="50" relative="1" as="geometry">
            <mxPoint x="340" y="700" as="sourcePoint" />
            <mxPoint x="540" y="700" as="targetPoint" />
          </mxGeometry>
        </mxCell>
        <mxCell id="Cb8Zpmx-AjWoCuc97hhI-41" value="Credencial de actualizado&amp;nbsp;" style="text;html=1;align=center;verticalAlign=middle;resizable=0;points=[];autosize=1;strokeColor=none;fillColor=none;" vertex="1" parent="1">
          <mxGeometry x="365" y="670" width="160" height="30" as="geometry" />
        </mxCell>
        <mxCell id="Cb8Zpmx-AjWoCuc97hhI-42" value="" style="endArrow=none;html=1;rounded=0;startFill=1;startArrow=classic;" edge="1" parent="1">
          <mxGeometry width="50" height="50" relative="1" as="geometry">
            <mxPoint x="140" y="712" as="sourcePoint" />
            <mxPoint x="340" y="712" as="targetPoint" />
          </mxGeometry>
        </mxCell>
        <mxCell id="Cb8Zpmx-AjWoCuc97hhI-43" value="Ve el icono de agregado con éxito&amp;nbsp;" style="text;html=1;align=center;verticalAlign=middle;resizable=0;points=[];autosize=1;strokeColor=none;fillColor=none;" vertex="1" parent="1">
          <mxGeometry x="140" y="680" width="210" height="30" as="geometry" />
        </mxCell>
        <mxCell id="Cb8Zpmx-AjWoCuc97hhI-44" value="" style="endArrow=none;html=1;rounded=0;startFill=1;startArrow=classic;" edge="1" parent="1">
          <mxGeometry width="50" height="50" relative="1" as="geometry">
            <mxPoint x="535" y="688" as="sourcePoint" />
            <mxPoint x="735" y="688" as="targetPoint" />
          </mxGeometry>
        </mxCell>
        <mxCell id="Cb8Zpmx-AjWoCuc97hhI-45" value="Error 404" style="text;html=1;align=center;verticalAlign=middle;resizable=0;points=[];autosize=1;strokeColor=none;fillColor=none;" vertex="1" parent="1">
          <mxGeometry x="610" y="658" width="70" height="30" as="geometry" />
        </mxCell>
        <mxCell id="Cb8Zpmx-AjWoCuc97hhI-46" value="" style="endArrow=classic;html=1;rounded=0;" edge="1" parent="1">
          <mxGeometry width="50" height="50" relative="1" as="geometry">
            <mxPoint x="140" y="770" as="sourcePoint" />
            <mxPoint x="340" y="770" as="targetPoint" />
          </mxGeometry>
        </mxCell>
        <mxCell id="Cb8Zpmx-AjWoCuc97hhI-47" value="Agrega al carrito&amp;nbsp;" style="text;html=1;align=center;verticalAlign=middle;resizable=0;points=[];autosize=1;strokeColor=none;fillColor=none;" vertex="1" parent="1">
          <mxGeometry x="185" y="740" width="110" height="30" as="geometry" />
        </mxCell>
        <mxCell id="Cb8Zpmx-AjWoCuc97hhI-48" value="" style="endArrow=classic;html=1;rounded=0;" edge="1" parent="1">
          <mxGeometry width="50" height="50" relative="1" as="geometry">
            <mxPoint x="340" y="789" as="sourcePoint" />
            <mxPoint x="540" y="789" as="targetPoint" />
          </mxGeometry>
        </mxCell>
        <mxCell id="Cb8Zpmx-AjWoCuc97hhI-49" value="Manda post&amp;nbsp;" style="text;html=1;align=center;verticalAlign=middle;resizable=0;points=[];autosize=1;strokeColor=none;fillColor=none;" vertex="1" parent="1">
          <mxGeometry x="395" y="760" width="90" height="30" as="geometry" />
        </mxCell>
        <mxCell id="Cb8Zpmx-AjWoCuc97hhI-50" value="" style="endArrow=classic;html=1;rounded=0;" edge="1" parent="1">
          <mxGeometry width="50" height="50" relative="1" as="geometry">
            <mxPoint x="540" y="810" as="sourcePoint" />
            <mxPoint x="740" y="810" as="targetPoint" />
          </mxGeometry>
        </mxCell>
        <mxCell id="Cb8Zpmx-AjWoCuc97hhI-51" value="Actualiza la cuenta&lt;div&gt;&amp;nbsp;del usuario&amp;nbsp;&lt;/div&gt;" style="text;html=1;align=center;verticalAlign=middle;resizable=0;points=[];autosize=1;strokeColor=none;fillColor=none;" vertex="1" parent="1">
          <mxGeometry x="585" y="770" width="120" height="40" as="geometry" />
        </mxCell>
        <mxCell id="Cb8Zpmx-AjWoCuc97hhI-52" value="" style="endArrow=none;html=1;rounded=0;startFill=1;startArrow=classic;" edge="1" parent="1">
          <mxGeometry width="50" height="50" relative="1" as="geometry">
            <mxPoint x="542.5" y="850" as="sourcePoint" />
            <mxPoint x="742.5" y="850" as="targetPoint" />
          </mxGeometry>
        </mxCell>
        <mxCell id="Cb8Zpmx-AjWoCuc97hhI-53" value="Credencial de actualizado&amp;nbsp;" style="text;html=1;align=center;verticalAlign=middle;resizable=0;points=[];autosize=1;strokeColor=none;fillColor=none;" vertex="1" parent="1">
          <mxGeometry x="562.5" y="820" width="160" height="30" as="geometry" />
        </mxCell>
        <mxCell id="Cb8Zpmx-AjWoCuc97hhI-54" value="" style="endArrow=none;html=1;rounded=0;startFill=1;startArrow=classic;" edge="1" parent="1">
          <mxGeometry width="50" height="50" relative="1" as="geometry">
            <mxPoint x="537.5" y="888" as="sourcePoint" />
            <mxPoint x="737.5" y="888" as="targetPoint" />
          </mxGeometry>
        </mxCell>
        <mxCell id="Cb8Zpmx-AjWoCuc97hhI-55" value="Error 404" style="text;html=1;align=center;verticalAlign=middle;resizable=0;points=[];autosize=1;strokeColor=none;fillColor=none;" vertex="1" parent="1">
          <mxGeometry x="612.5" y="858" width="70" height="30" as="geometry" />
        </mxCell>
        <mxCell id="Cb8Zpmx-AjWoCuc97hhI-56" value="" style="endArrow=none;html=1;rounded=0;startFill=1;startArrow=classic;" edge="1" parent="1">
          <mxGeometry width="50" height="50" relative="1" as="geometry">
            <mxPoint x="340" y="910" as="sourcePoint" />
            <mxPoint x="540" y="910" as="targetPoint" />
          </mxGeometry>
        </mxCell>
        <mxCell id="Cb8Zpmx-AjWoCuc97hhI-57" value="Credencial de actualizado&amp;nbsp;" style="text;html=1;align=center;verticalAlign=middle;resizable=0;points=[];autosize=1;strokeColor=none;fillColor=none;" vertex="1" parent="1">
          <mxGeometry x="365" y="880" width="160" height="30" as="geometry" />
        </mxCell>
        <mxCell id="Cb8Zpmx-AjWoCuc97hhI-58" value="" style="endArrow=none;html=1;rounded=0;startFill=1;startArrow=classic;" edge="1" parent="1">
          <mxGeometry width="50" height="50" relative="1" as="geometry">
            <mxPoint x="140" y="930" as="sourcePoint" />
            <mxPoint x="340" y="930" as="targetPoint" />
          </mxGeometry>
        </mxCell>
        <mxCell id="Cb8Zpmx-AjWoCuc97hhI-59" value="Notificación de agregado&lt;div&gt;&amp;nbsp;con éxito&amp;nbsp;&lt;/div&gt;" style="text;html=1;align=center;verticalAlign=middle;resizable=0;points=[];autosize=1;strokeColor=none;fillColor=none;" vertex="1" parent="1">
          <mxGeometry x="165" y="888" width="160" height="40" as="geometry" />
        </mxCell>
        <mxCell id="Cb8Zpmx-AjWoCuc97hhI-60" value="" style="endArrow=classic;html=1;rounded=0;" edge="1" parent="1">
          <mxGeometry width="50" height="50" relative="1" as="geometry">
            <mxPoint x="140" y="980" as="sourcePoint" />
            <mxPoint x="340" y="980" as="targetPoint" />
          </mxGeometry>
        </mxCell>
        <mxCell id="Cb8Zpmx-AjWoCuc97hhI-61" value="Selecciona talla" style="text;html=1;align=center;verticalAlign=middle;resizable=0;points=[];autosize=1;strokeColor=none;fillColor=none;" vertex="1" parent="1">
          <mxGeometry x="175" y="950" width="110" height="30" as="geometry" />
        </mxCell>
        <mxCell id="Cb8Zpmx-AjWoCuc97hhI-62" value="" style="endArrow=classic;html=1;rounded=0;edgeStyle=orthogonalEdgeStyle;curved=1;" edge="1" parent="1">
          <mxGeometry width="50" height="50" relative="1" as="geometry">
            <mxPoint x="340" y="1000" as="sourcePoint" />
            <mxPoint x="340" y="1020" as="targetPoint" />
            <Array as="points">
              <mxPoint x="370" y="1000" />
              <mxPoint x="370" y="1020" />
            </Array>
          </mxGeometry>
        </mxCell>
        <mxCell id="Cb8Zpmx-AjWoCuc97hhI-63" value="" style="endArrow=none;html=1;rounded=0;startFill=1;startArrow=classic;" edge="1" parent="1">
          <mxGeometry width="50" height="50" relative="1" as="geometry">
            <mxPoint x="140" y="1040" as="sourcePoint" />
            <mxPoint x="340" y="1040" as="targetPoint" />
          </mxGeometry>
        </mxCell>
        <mxCell id="Cb8Zpmx-AjWoCuc97hhI-64" value="Ve talla seleccionada&amp;nbsp;" style="text;html=1;align=center;verticalAlign=middle;resizable=0;points=[];autosize=1;strokeColor=none;fillColor=none;" vertex="1" parent="1">
          <mxGeometry x="170" y="1008" width="140" height="30" as="geometry" />
        </mxCell>
        <mxCell id="Cb8Zpmx-AjWoCuc97hhI-65" value="" style="endArrow=classic;html=1;rounded=0;" edge="1" parent="1">
          <mxGeometry width="50" height="50" relative="1" as="geometry">
            <mxPoint x="140" y="1090" as="sourcePoint" />
            <mxPoint x="340" y="1090" as="targetPoint" />
          </mxGeometry>
        </mxCell>
        <mxCell id="Cb8Zpmx-AjWoCuc97hhI-66" value="Selecciona color&amp;nbsp;" style="text;html=1;align=center;verticalAlign=middle;resizable=0;points=[];autosize=1;strokeColor=none;fillColor=none;" vertex="1" parent="1">
          <mxGeometry x="180" y="1058" width="110" height="30" as="geometry" />
        </mxCell>
        <mxCell id="Cb8Zpmx-AjWoCuc97hhI-67" value="" style="endArrow=classic;html=1;rounded=0;edgeStyle=orthogonalEdgeStyle;curved=1;" edge="1" parent="1">
          <mxGeometry width="50" height="50" relative="1" as="geometry">
            <mxPoint x="340" y="1110" as="sourcePoint" />
            <mxPoint x="340" y="1130" as="targetPoint" />
            <Array as="points">
              <mxPoint x="370" y="1110" />
              <mxPoint x="370" y="1130" />
            </Array>
          </mxGeometry>
        </mxCell>
        <mxCell id="Cb8Zpmx-AjWoCuc97hhI-68" value="" style="endArrow=none;html=1;rounded=0;startFill=1;startArrow=classic;" edge="1" parent="1">
          <mxGeometry width="50" height="50" relative="1" as="geometry">
            <mxPoint x="140" y="1150" as="sourcePoint" />
            <mxPoint x="340" y="1150" as="targetPoint" />
          </mxGeometry>
        </mxCell>
        <mxCell id="Cb8Zpmx-AjWoCuc97hhI-69" value="Ve color seleccionado&amp;nbsp;" style="text;html=1;align=center;verticalAlign=middle;resizable=0;points=[];autosize=1;strokeColor=none;fillColor=none;" vertex="1" parent="1">
          <mxGeometry x="170" y="1118" width="140" height="30" as="geometry" />
        </mxCell>
        <mxCell id="Cb8Zpmx-AjWoCuc97hhI-70" value="" style="endArrow=classic;html=1;rounded=0;" edge="1" parent="1">
          <mxGeometry width="50" height="50" relative="1" as="geometry">
            <mxPoint x="135" y="1220" as="sourcePoint" />
            <mxPoint x="335" y="1220" as="targetPoint" />
          </mxGeometry>
        </mxCell>
        <mxCell id="Cb8Zpmx-AjWoCuc97hhI-71" value="Selecciona tipo de cita" style="text;html=1;align=center;verticalAlign=middle;resizable=0;points=[];autosize=1;strokeColor=none;fillColor=none;" vertex="1" parent="1">
          <mxGeometry x="155" y="1188" width="140" height="30" as="geometry" />
        </mxCell>
        <mxCell id="Cb8Zpmx-AjWoCuc97hhI-72" value="" style="endArrow=classic;html=1;rounded=0;edgeStyle=orthogonalEdgeStyle;curved=1;" edge="1" parent="1">
          <mxGeometry width="50" height="50" relative="1" as="geometry">
            <mxPoint x="340" y="1240" as="sourcePoint" />
            <mxPoint x="340" y="1260" as="targetPoint" />
            <Array as="points">
              <mxPoint x="370" y="1240" />
              <mxPoint x="370" y="1260" />
            </Array>
          </mxGeometry>
        </mxCell>
        <mxCell id="Cb8Zpmx-AjWoCuc97hhI-73" value="" style="endArrow=none;html=1;rounded=0;startFill=1;startArrow=classic;" edge="1" parent="1">
          <mxGeometry width="50" height="50" relative="1" as="geometry">
            <mxPoint x="140" y="1280" as="sourcePoint" />
            <mxPoint x="340" y="1280" as="targetPoint" />
          </mxGeometry>
        </mxCell>
        <mxCell id="Cb8Zpmx-AjWoCuc97hhI-74" value="Se actualiza la pantalla&amp;nbsp;" style="text;html=1;align=center;verticalAlign=middle;resizable=0;points=[];autosize=1;strokeColor=none;fillColor=none;" vertex="1" parent="1">
          <mxGeometry x="160" y="1250" width="150" height="30" as="geometry" />
        </mxCell>
        <mxCell id="Cb8Zpmx-AjWoCuc97hhI-75" value="" style="endArrow=classic;html=1;rounded=0;" edge="1" parent="1">
          <mxGeometry width="50" height="50" relative="1" as="geometry">
            <mxPoint x="135" y="1340" as="sourcePoint" />
            <mxPoint x="335" y="1340" as="targetPoint" />
          </mxGeometry>
        </mxCell>
        <mxCell id="Cb8Zpmx-AjWoCuc97hhI-76" value="Selecciona fecha y hora&amp;nbsp;" style="text;html=1;align=center;verticalAlign=middle;resizable=0;points=[];autosize=1;strokeColor=none;fillColor=none;" vertex="1" parent="1">
          <mxGeometry x="155" y="1310" width="150" height="30" as="geometry" />
        </mxCell>
        <mxCell id="Cb8Zpmx-AjWoCuc97hhI-77" value="" style="endArrow=classic;html=1;rounded=0;edgeStyle=orthogonalEdgeStyle;curved=1;" edge="1" parent="1">
          <mxGeometry width="50" height="50" relative="1" as="geometry">
            <mxPoint x="340" y="1360" as="sourcePoint" />
            <mxPoint x="340" y="1380" as="targetPoint" />
            <Array as="points">
              <mxPoint x="370" y="1360" />
              <mxPoint x="370" y="1380" />
            </Array>
          </mxGeometry>
        </mxCell>
        <mxCell id="Cb8Zpmx-AjWoCuc97hhI-78" value="" style="endArrow=none;html=1;rounded=0;startFill=1;startArrow=classic;" edge="1" parent="1">
          <mxGeometry width="50" height="50" relative="1" as="geometry">
            <mxPoint x="135" y="1400" as="sourcePoint" />
            <mxPoint x="335" y="1400" as="targetPoint" />
          </mxGeometry>
        </mxCell>
        <mxCell id="Cb8Zpmx-AjWoCuc97hhI-79" value="Agendado con exito" style="text;html=1;align=center;verticalAlign=middle;resizable=0;points=[];autosize=1;strokeColor=none;fillColor=none;" vertex="1" parent="1">
          <mxGeometry x="175" y="1370" width="130" height="30" as="geometry" />
        </mxCell>
        <mxCell id="Cb8Zpmx-AjWoCuc97hhI-80" value="" style="endArrow=classic;html=1;rounded=0;" edge="1" parent="1">
          <mxGeometry width="50" height="50" relative="1" as="geometry">
            <mxPoint x="135" y="1450" as="sourcePoint" />
            <mxPoint x="335" y="1450" as="targetPoint" />
          </mxGeometry>
        </mxCell>
        <mxCell id="Cb8Zpmx-AjWoCuc97hhI-81" value="Método de paga" style="text;html=1;align=center;verticalAlign=middle;resizable=0;points=[];autosize=1;strokeColor=none;fillColor=none;" vertex="1" parent="1">
          <mxGeometry x="175" y="1420" width="110" height="30" as="geometry" />
        </mxCell>
        <mxCell id="Cb8Zpmx-AjWoCuc97hhI-82" value="" style="endArrow=classic;html=1;rounded=0;edgeStyle=orthogonalEdgeStyle;curved=1;" edge="1" parent="1">
          <mxGeometry width="50" height="50" relative="1" as="geometry">
            <mxPoint x="340" y="1470" as="sourcePoint" />
            <mxPoint x="340" y="1490" as="targetPoint" />
            <Array as="points">
              <mxPoint x="370" y="1470" />
              <mxPoint x="370" y="1490" />
            </Array>
          </mxGeometry>
        </mxCell>
        <mxCell id="Cb8Zpmx-AjWoCuc97hhI-83" value="" style="endArrow=none;html=1;rounded=0;startFill=1;startArrow=classic;" edge="1" parent="1">
          <mxGeometry width="50" height="50" relative="1" as="geometry">
            <mxPoint x="137.5" y="1522" as="sourcePoint" />
            <mxPoint x="337.5" y="1522" as="targetPoint" />
          </mxGeometry>
        </mxCell>
        <mxCell id="Cb8Zpmx-AjWoCuc97hhI-84" value="Ve opciones&amp;nbsp;" style="text;html=1;align=center;verticalAlign=middle;resizable=0;points=[];autosize=1;strokeColor=none;fillColor=none;" vertex="1" parent="1">
          <mxGeometry x="190" y="1490" width="90" height="30" as="geometry" />
        </mxCell>
        <mxCell id="Cb8Zpmx-AjWoCuc97hhI-85" value="" style="endArrow=classic;html=1;rounded=0;" edge="1" parent="1">
          <mxGeometry width="50" height="50" relative="1" as="geometry">
            <mxPoint x="132.5" y="1572" as="sourcePoint" />
            <mxPoint x="332.5" y="1572" as="targetPoint" />
          </mxGeometry>
        </mxCell>
        <mxCell id="Cb8Zpmx-AjWoCuc97hhI-86" value="Agrega datos de tarjera" style="text;html=1;align=center;verticalAlign=middle;resizable=0;points=[];autosize=1;strokeColor=none;fillColor=none;" vertex="1" parent="1">
          <mxGeometry x="152.5" y="1542" width="150" height="30" as="geometry" />
        </mxCell>
        <mxCell id="Cb8Zpmx-AjWoCuc97hhI-87" value="" style="endArrow=classic;html=1;rounded=0;" edge="1" parent="1">
          <mxGeometry width="50" height="50" relative="1" as="geometry">
            <mxPoint x="340" y="1468" as="sourcePoint" />
            <mxPoint x="540" y="1468" as="targetPoint" />
          </mxGeometry>
        </mxCell>
        <mxCell id="Cb8Zpmx-AjWoCuc97hhI-88" value="Formato de pago" style="text;html=1;align=center;verticalAlign=middle;resizable=0;points=[];autosize=1;strokeColor=none;fillColor=none;" vertex="1" parent="1">
          <mxGeometry x="375" y="1438" width="110" height="30" as="geometry" />
        </mxCell>
        <mxCell id="Cb8Zpmx-AjWoCuc97hhI-89" value="" style="endArrow=classic;html=1;rounded=0;edgeStyle=orthogonalEdgeStyle;curved=1;" edge="1" parent="1">
          <mxGeometry width="50" height="50" relative="1" as="geometry">
            <mxPoint x="540" y="1478" as="sourcePoint" />
            <mxPoint x="540" y="1498" as="targetPoint" />
            <Array as="points">
              <mxPoint x="570" y="1478" />
              <mxPoint x="570" y="1498" />
            </Array>
          </mxGeometry>
        </mxCell>
        <mxCell id="Cb8Zpmx-AjWoCuc97hhI-90" value="" style="endArrow=none;html=1;rounded=0;startFill=1;startArrow=classic;" edge="1" parent="1">
          <mxGeometry width="50" height="50" relative="1" as="geometry">
            <mxPoint x="340" y="1510" as="sourcePoint" />
            <mxPoint x="540" y="1510" as="targetPoint" />
          </mxGeometry>
        </mxCell>
        <mxCell id="Cb8Zpmx-AjWoCuc97hhI-92" value="" style="endArrow=classic;html=1;rounded=0;edgeStyle=orthogonalEdgeStyle;curved=1;" edge="1" parent="1">
          <mxGeometry width="50" height="50" relative="1" as="geometry">
            <mxPoint x="340" y="1580" as="sourcePoint" />
            <mxPoint x="340" y="1600" as="targetPoint" />
            <Array as="points">
              <mxPoint x="370" y="1580" />
              <mxPoint x="370" y="1600" />
            </Array>
          </mxGeometry>
        </mxCell>
        <mxCell id="Cb8Zpmx-AjWoCuc97hhI-93" value="" style="endArrow=none;html=1;rounded=0;startFill=1;startArrow=classic;" edge="1" parent="1">
          <mxGeometry width="50" height="50" relative="1" as="geometry">
            <mxPoint x="135" y="1620" as="sourcePoint" />
            <mxPoint x="335" y="1620" as="targetPoint" />
          </mxGeometry>
        </mxCell>
        <mxCell id="Cb8Zpmx-AjWoCuc97hhI-94" value="Botón de pago" style="text;html=1;align=center;verticalAlign=middle;resizable=0;points=[];autosize=1;strokeColor=none;fillColor=none;" vertex="1" parent="1">
          <mxGeometry x="190" y="1588" width="100" height="30" as="geometry" />
        </mxCell>
        <mxCell id="Cb8Zpmx-AjWoCuc97hhI-95" value="" style="endArrow=classic;html=1;rounded=0;" edge="1" parent="1">
          <mxGeometry width="50" height="50" relative="1" as="geometry">
            <mxPoint x="135" y="1660" as="sourcePoint" />
            <mxPoint x="335" y="1660" as="targetPoint" />
          </mxGeometry>
        </mxCell>
        <mxCell id="Cb8Zpmx-AjWoCuc97hhI-96" value="Agenda cita" style="text;html=1;align=center;verticalAlign=middle;resizable=0;points=[];autosize=1;strokeColor=none;fillColor=none;" vertex="1" parent="1">
          <mxGeometry x="205" y="1628" width="90" height="30" as="geometry" />
        </mxCell>
        <mxCell id="Cb8Zpmx-AjWoCuc97hhI-97" value="" style="endArrow=classic;html=1;rounded=0;" edge="1" parent="1">
          <mxGeometry width="50" height="50" relative="1" as="geometry">
            <mxPoint x="340" y="1680" as="sourcePoint" />
            <mxPoint x="540" y="1680" as="targetPoint" />
          </mxGeometry>
        </mxCell>
        <mxCell id="Cb8Zpmx-AjWoCuc97hhI-99" value="Devuelve formato / error 404" style="text;html=1;align=center;verticalAlign=middle;resizable=0;points=[];autosize=1;strokeColor=none;fillColor=none;" vertex="1" parent="1">
          <mxGeometry x="355" y="1480" width="180" height="30" as="geometry" />
        </mxCell>
        <mxCell id="Cb8Zpmx-AjWoCuc97hhI-100" value="Post con credenciales&amp;nbsp;&lt;div&gt;de pago y cita&lt;/div&gt;" style="text;html=1;align=center;verticalAlign=middle;resizable=0;points=[];autosize=1;strokeColor=none;fillColor=none;" vertex="1" parent="1">
          <mxGeometry x="365" y="1640" width="140" height="40" as="geometry" />
        </mxCell>
        <mxCell id="Cb8Zpmx-AjWoCuc97hhI-101" value="" style="endArrow=classic;html=1;rounded=0;" edge="1" parent="1">
          <mxGeometry width="50" height="50" relative="1" as="geometry">
            <mxPoint x="540" y="1700" as="sourcePoint" />
            <mxPoint x="740" y="1700" as="targetPoint" />
          </mxGeometry>
        </mxCell>
        <mxCell id="Cb8Zpmx-AjWoCuc97hhI-102" value="Post con credenciales&amp;nbsp;&lt;div&gt;de pago y cita&lt;/div&gt;" style="text;html=1;align=center;verticalAlign=middle;resizable=0;points=[];autosize=1;strokeColor=none;fillColor=none;" vertex="1" parent="1">
          <mxGeometry x="560" y="1658" width="140" height="40" as="geometry" />
        </mxCell>
        <mxCell id="Cb8Zpmx-AjWoCuc97hhI-103" value="" style="endArrow=none;html=1;rounded=0;startFill=1;startArrow=classic;" edge="1" parent="1">
          <mxGeometry width="50" height="50" relative="1" as="geometry">
            <mxPoint x="540" y="1753" as="sourcePoint" />
            <mxPoint x="740" y="1753" as="targetPoint" />
          </mxGeometry>
        </mxCell>
        <mxCell id="Cb8Zpmx-AjWoCuc97hhI-104" value="Error 404" style="text;html=1;align=center;verticalAlign=middle;resizable=0;points=[];autosize=1;strokeColor=none;fillColor=none;" vertex="1" parent="1">
          <mxGeometry x="615" y="1718" width="70" height="30" as="geometry" />
        </mxCell>
        <mxCell id="Cb8Zpmx-AjWoCuc97hhI-105" value="" style="endArrow=none;html=1;rounded=0;startFill=1;startArrow=classic;" edge="1" parent="1">
          <mxGeometry width="50" height="50" relative="1" as="geometry">
            <mxPoint x="540" y="1790" as="sourcePoint" />
            <mxPoint x="740" y="1790" as="targetPoint" />
          </mxGeometry>
        </mxCell>
        <mxCell id="Cb8Zpmx-AjWoCuc97hhI-106" value="Credencial de éxito&amp;nbsp;" style="text;html=1;align=center;verticalAlign=middle;resizable=0;points=[];autosize=1;strokeColor=none;fillColor=none;" vertex="1" parent="1">
          <mxGeometry x="580" y="1758" width="130" height="30" as="geometry" />
        </mxCell>
        <mxCell id="Cb8Zpmx-AjWoCuc97hhI-107" value="" style="endArrow=none;html=1;rounded=0;startFill=1;startArrow=classic;" edge="1" parent="1">
          <mxGeometry width="50" height="50" relative="1" as="geometry">
            <mxPoint x="340" y="1800" as="sourcePoint" />
            <mxPoint x="540" y="1800" as="targetPoint" />
          </mxGeometry>
        </mxCell>
        <mxCell id="Cb8Zpmx-AjWoCuc97hhI-108" value="Credencial de éxito&amp;nbsp;" style="text;html=1;align=center;verticalAlign=middle;resizable=0;points=[];autosize=1;strokeColor=none;fillColor=none;" vertex="1" parent="1">
          <mxGeometry x="375" y="1768" width="130" height="30" as="geometry" />
        </mxCell>
        <mxCell id="Cb8Zpmx-AjWoCuc97hhI-109" value="" style="endArrow=none;html=1;rounded=0;startFill=1;startArrow=classic;" edge="1" parent="1">
          <mxGeometry width="50" height="50" relative="1" as="geometry">
            <mxPoint x="140" y="1820" as="sourcePoint" />
            <mxPoint x="340" y="1820" as="targetPoint" />
          </mxGeometry>
        </mxCell>
        <mxCell id="Cb8Zpmx-AjWoCuc97hhI-110" value="Cita exitosa" style="text;html=1;align=center;verticalAlign=middle;resizable=0;points=[];autosize=1;strokeColor=none;fillColor=none;" vertex="1" parent="1">
          <mxGeometry x="200" y="1788" width="90" height="30" as="geometry" />
        </mxCell>
      </root>
    </mxGraphModel>
  </diagram>
</mxfile>
